<?xml version="1.0" standalone="no"?>
<!DOCTYPE svg PUBLIC "-//W3C//DTD SVG 20010904//EN"
 "http://www.w3.org/TR/2001/REC-SVG-20010904/DTD/svg10.dtd">
<svg version="1.0" xmlns="http://www.w3.org/2000/svg"
 width="160.000000pt" height="160.000000pt" viewBox="0 0 160.000000 160.000000"
 preserveAspectRatio="xMidYMid meet">
<metadata>
Created by potrace 1.11, written by Peter Selinger 2001-2013
</metadata>
<g transform="translate(0.000000,160.000000) scale(0.100000,-0.100000)"
fill="#000000" stroke="none">
<path d="M631 1499 c-248 -63 -437 -241 -519 -487 -22 -67 -26 -95 -26 -212 0
-126 2 -141 31 -223 43 -123 86 -190 183 -287 147 -147 307 -211 520 -205 201
5 345 68 490 214 67 68 94 104 127 171 63 126 78 192 77 340 0 113 -3 133 -31
213 -43 121 -85 189 -178 283 -90 90 -174 143 -293 182 -104 33 -273 38 -381
11z"/>
</g>
</svg>
